<svg id="Livello_1" data-name="Livello 1" xmlns="http://www.w3.org/2000/svg" viewBox="0 0 35.93 30.29"><defs><style>.cls-1{fill:#fff;}</style></defs><path class="cls-1" d="M0,31.14V.86H35.93V31.14ZM29.26,13.78c-.26-.14-.47-.29-.71-.39-.43-.18-.53-.47-.53-.94,0-.79-.09-1.58-.13-2.38A.78.78,0,0,1,28,9.64a7.47,7.47,0,0,0,1-4,4.62,4.62,0,0,0-.69-2.83,3.65,3.65,0,0,0-.52-.52l-.07.1c1.73,1.68,1.11,5.68,0,6.92a3.64,3.64,0,0,0-1.56-1.95,1.51,1.51,0,0,0-2.33,1.21,2,2,0,0,0,2.33,2.24,8.57,8.57,0,0,0,1.52-.52l.15,2.66a27.53,27.53,0,0,0-3.72-2.11,1.77,1.77,0,0,1-1.28-2.25,1.72,1.72,0,0,0-.1-.48h-.17a2.44,2.44,0,0,0-.07.46c0,.45,0,.91,0,1.35a.51.51,0,0,1-.31.36c-.38.11-.59,0-.59-.48,0-2.51-.06-5-.09-7.54,0-.15,0-.31,0-.46h-.13c0,.14,0,.28,0,.43l-.06,7.69a1.06,1.06,0,0,1,0,.36.64.64,0,0,1-.18.24c-.26-.93-.53-1.83-.78-2.74a7.26,7.26,0,0,1-.2-.9c-.05-.46-.06-.92-.08-1.39h-.13l-.08,1.32a1.62,1.62,0,0,1-.94-1.7c.07-.86,0-1.73,0-2.6,0-.16,0-.31,0-.47H18.6V5.78c-.48,0-.65-.25-.62-.66s0-.93,0-1.4a2.21,2.21,0,0,0-.06-.34l-.13,0v2c-.36,0-.65.05-.94.09S16.3,5.41,16.3,5s0-.61,0-.92h-.16c0,.39,0,.78-.1,1.16a.59.59,0,0,1-.25.38,2.23,2.23,0,0,0-1.2,1.61,5.33,5.33,0,0,0,.78,3.93c.32.55.83,1,.71,1.71,0,0,.07.07.16.15l.24-.54.53.35a4.15,4.15,0,0,1-2.22.88v-2h-.18a2.46,2.46,0,0,0-.11.45,9.61,9.61,0,0,0,0,1.2.72.72,0,0,1-.52.82,2.89,2.89,0,0,0-1.21.85,3.59,3.59,0,0,1-1.29,1.08l-1.21.71L7,18.69c0-2.07-.84-3.88-1.34-5.76a2.32,2.32,0,0,0-1.35-1.68.79.79,0,0,0-.7.07.84.84,0,0,0-.06.74,3.45,3.45,0,0,0,.89,1.14,5.44,5.44,0,0,1,2,3.53c.13.7.18,1.41.27,2.12l-.16,0a1.66,1.66,0,0,1-.13-.14,16.32,16.32,0,0,0-2.79-3.41,1.83,1.83,0,0,0-1.53-.65c-.27,0-.66.22-.72.42a1,1,0,0,0,.33.78,4.14,4.14,0,0,0,1.08.51c.46.17,1,.32,1.42.48a5.56,5.56,0,0,1-1,.09,3.28,3.28,0,0,0-.75.18c-.31.13-.54.39-.38.74s.45.35.76.23.46-.17.68-.28c1.4-.74,1.64-.55,2.48.85a.08.08,0,0,1,0,.05c.19.28.17.48-.18.65s-.82.54-1.27.72a1.63,1.63,0,0,0,0,2.77c2.33,1.26,4.6,2.67,6.9,4a3.43,3.43,0,0,0,1,.36,1.52,1.52,0,0,1,1,.56,2.56,2.56,0,0,0,1,.74,5.58,5.58,0,0,0,5-.28,2.17,2.17,0,0,0,1.27-2.09,1.43,1.43,0,0,1,.25-1,2.44,2.44,0,0,0,.77-2,.63.63,0,0,1,.39-.65c1.2-.68,2.37-1.39,3.57-2.07.61-.34,1.25-.63,1.91-1a1.07,1.07,0,0,1,0,.21A2.83,2.83,0,0,1,26.52,22a10.1,10.1,0,0,1-3.34,2c-.16.06-.3.15-.45.22l0,.16a1.8,1.8,0,0,0,.41,0A9.65,9.65,0,0,0,27,21.94,2.8,2.8,0,0,0,28,19.36c0-.11.15-.26.28-.46.48,1.32.8,1.6,1.75,1.6,0-1.12.36-2.19.11-3.34a7.44,7.44,0,0,1,.29-4.25c.07-.16.16-.31.24-.46l.17,0a7.92,7.92,0,0,0-.49,4.69c.35-1.17.65-2.29,1-3.39a10.85,10.85,0,0,1,1.48-3,26.28,26.28,0,0,0-1.85,5.15c.9-.35,1.1-1.17,1.52-1.81a2.22,2.22,0,0,1-1,1.78,1.59,1.59,0,0,0-.84,1.41c0,.15-.06.3-.08.46l-.35,2.87a11.88,11.88,0,0,0,1.19-.45A3.29,3.29,0,0,0,33,18.21a18,18,0,0,0,.54-3,18.52,18.52,0,0,1,.59-4.62,1.46,1.46,0,0,0,0-1.2c-.32-.39-.88-.14-1.31.06a5.82,5.82,0,0,0-2.73,2.68C29.8,12.65,29.55,13.19,29.26,13.78ZM2.52,7.38h.16a3.88,3.88,0,0,1,0-.48A36.69,36.69,0,0,1,3.5,3.16c.31-1,1-1.08,1.78-.33a9.06,9.06,0,0,1,2,3.22,1.38,1.38,0,0,1,0,.83,4.83,4.83,0,0,0,.11,3.45,3.33,3.33,0,0,0,.59.72c.12-.3.37-.61.34-.89C8.2,9.13,8,8.1,7.82,7.09a1.62,1.62,0,0,1,1-1.86c.56-.16.82.06.85.62a7,7,0,0,0,.21,1.64c.17.62.57.68,1,.22a1.38,1.38,0,0,0-.37-2.31.63.63,0,0,1-.27-1c.16-.32.35-.63.53-.94l-.13-.09c-.61.28-.69.95-.93,1.5A2.28,2.28,0,0,0,7.56,6.21l-.25-.57a9.59,9.59,0,0,0-1.89-3c-.86-.84-1.66-.75-2.07.35a20,20,0,0,0-.73,3.06A9.22,9.22,0,0,0,2.52,7.38ZM13,4.36a40.65,40.65,0,0,0,0,7.4A31.58,31.58,0,0,0,13,4.36Zm9.65,2.49A4.67,4.67,0,0,0,22.56,4,5.81,5.81,0,0,0,22.62,6.85ZM14.77,2.07h-.19c.13,1-.23,2.05,0,3.06h.2ZM13.08,12.6H12.9v1.55h.18ZM16.27,1h-.1V2.59h.1Z" transform="translate(0 -0.86)"/><path d="M29.26,13.78c.29-.59.54-1.13.81-1.65A5.82,5.82,0,0,1,32.8,9.45c.43-.2,1-.45,1.31-.06a1.46,1.46,0,0,1,0,1.2,18.52,18.52,0,0,0-.59,4.62,18,18,0,0,1-.54,3,3.29,3.29,0,0,1-1.64,1.95,11.88,11.88,0,0,1-1.19.45l.35-2.87c0-.16.06-.31.08-.46a1.59,1.59,0,0,1,.84-1.41,2.22,2.22,0,0,0,1-1.78c-.42.64-.62,1.46-1.52,1.81a26.28,26.28,0,0,1,1.85-5.15,10.85,10.85,0,0,0-1.48,3c-.35,1.1-.65,2.22-1,3.39a7.92,7.92,0,0,1,.49-4.69l-.17,0c-.08.15-.17.3-.24.46a7.44,7.44,0,0,0-.29,4.25c.25,1.15-.15,2.22-.11,3.34-.95,0-1.27-.28-1.75-1.6-.13.2-.3.35-.28.46A2.8,2.8,0,0,1,27,21.94a9.65,9.65,0,0,1-3.86,2.4,1.8,1.8,0,0,1-.41,0l0-.16c.15-.07.29-.16.45-.22a10.1,10.1,0,0,0,3.34-2,2.83,2.83,0,0,0,1.13-2.3,1.07,1.07,0,0,0,0-.21c-.66.33-1.3.62-1.91,1-1.2.68-2.37,1.39-3.57,2.07a.63.63,0,0,0-.39.65,2.44,2.44,0,0,1-.77,2,1.43,1.43,0,0,0-.25,1,2.17,2.17,0,0,1-1.27,2.09,5.58,5.58,0,0,1-5,.28,2.56,2.56,0,0,1-1-.74,1.52,1.52,0,0,0-1-.56,3.43,3.43,0,0,1-1-.36c-2.3-1.33-4.57-2.74-6.9-4a1.63,1.63,0,0,1,0-2.77c.45-.18.84-.51,1.27-.72s.37-.37.18-.65a.08.08,0,0,0,0-.05c-.84-1.4-1.08-1.59-2.48-.85-.22.11-.45.19-.68.28s-.62.09-.76-.23.07-.61.38-.74A3.28,3.28,0,0,1,3.24,17a5.56,5.56,0,0,0,1-.09c-.47-.16-1-.31-1.42-.48a4.14,4.14,0,0,1-1.08-.51,1,1,0,0,1-.33-.78c.06-.2.45-.38.72-.42a1.83,1.83,0,0,1,1.53.65,16.32,16.32,0,0,1,2.79,3.41,1.66,1.66,0,0,0,.13.14l.16,0c-.09-.71-.14-1.42-.27-2.12a5.44,5.44,0,0,0-2-3.53,3.45,3.45,0,0,1-.89-1.14.84.84,0,0,1,.06-.74.79.79,0,0,1,.7-.07,2.32,2.32,0,0,1,1.35,1.68C6.18,14.81,7,16.62,7,18.69l3.26-1.89,1.21-.71A3.59,3.59,0,0,0,12.78,15,2.89,2.89,0,0,1,14,14.16a.72.72,0,0,0,.52-.82,9.61,9.61,0,0,1,0-1.2,2.46,2.46,0,0,1,.11-.45h.18v2A4.15,4.15,0,0,0,17,12.86l-.53-.35-.24.54c-.09-.08-.16-.12-.16-.15.12-.72-.39-1.16-.71-1.71a5.33,5.33,0,0,1-.78-3.93,2.23,2.23,0,0,1,1.2-1.61A.59.59,0,0,0,16,5.27c.06-.38.07-.77.1-1.16h.16c0,.31,0,.61,0,.92s.17.54.55.49.58,0,.94-.09v-2l.13,0a2.21,2.21,0,0,1,.06.34c0,.47,0,.94,0,1.4s.14.62.62.66V2.05h.15c0,.16,0,.31,0,.47,0,.87.06,1.74,0,2.6a1.62,1.62,0,0,0,.94,1.7l.08-1.32h.13c0,.47,0,.93.08,1.39a7.26,7.26,0,0,0,.2.9c.25.91.52,1.81.78,2.74a.64.64,0,0,0,.18-.24,1.06,1.06,0,0,0,0-.36l.06-7.69c0-.15,0-.29,0-.43h.13c0,.15,0,.31,0,.46,0,2.52.08,5,.09,7.54,0,.48.21.59.59.48a.51.51,0,0,0,.31-.36c0-.44,0-.9,0-1.35a2.44,2.44,0,0,1,.07-.46h.17a1.72,1.72,0,0,1,.1.48,1.77,1.77,0,0,0,1.28,2.25,27.53,27.53,0,0,1,3.72,2.11l-.15-2.66a8.57,8.57,0,0,1-1.52.52,2,2,0,0,1-2.33-2.24,1.51,1.51,0,0,1,2.33-1.21,3.64,3.64,0,0,1,1.56,1.95c1.13-1.24,1.75-5.24,0-6.92l.07-.1a3.65,3.65,0,0,1,.52.52A4.62,4.62,0,0,1,29,5.62a7.47,7.47,0,0,1-1,4,.78.78,0,0,0-.06.43c0,.8.15,1.59.13,2.38,0,.47.1.76.53.94C28.79,13.49,29,13.64,29.26,13.78Zm-16.74,2c-.16.07-.24.09-.31.13-2.55,1.49-5.1,3-7.64,4.47-.61.37-.56.95.1,1.34l7,4.1a7.22,7.22,0,0,0,.79.35c-.2-1.11-.33-2.15.48-2.92.63-.61,1.28-1.23,2-1.81a5,5,0,0,1,5.72-.25,1.28,1.28,0,0,0,1.88,0l.34-.22A1.88,1.88,0,0,1,22,19.05a13,13,0,0,1-4.93.53,8.34,8.34,0,0,1-3.56-.9,1.58,1.58,0,0,1-1-1.63A9.92,9.92,0,0,0,12.52,15.82Zm2.07-1.5-.17-.13a11.61,11.61,0,0,0-1.33.86.86.86,0,0,0,0,1.4,3.61,3.61,0,0,0,1,.65,11,11,0,0,0,7.06.31,6.25,6.25,0,0,0,1.77-.84A.9.9,0,0,0,23,15a10.22,10.22,0,0,0-1.38-.85l-.14.1v2.37h-.16c0-.16,0-.32,0-.48,0-.57,0-1.15,0-1.72,0-.13-.13-.35-.23-.37-.71-.15-1.42-.26-2.23-.4V17.2h-.17V13.73c-.23,0-.36-.05-.5-.05-.6,0-1.22.05-1.82.14-1.48.21-1.48.23-1.48,1.72v1.07h-.2Zm9,2.46a7.92,7.92,0,0,1,1.7,0,7.93,7.93,0,0,1,1.55.73c.22-.9.46-1.77.66-2.64s.2-1-.64-1.48a5.21,5.21,0,0,1-2.05-1.75,3.11,3.11,0,0,0-2.15-1.17V13H22.5V10.44a3.29,3.29,0,0,0-.81.11c-.39.18-.9.17-1.09.7-.25.68-.55,1.35-.81,2l-.07-.6c-1,.19-1,.22-.85.82l2.41.37V11.77h.16a10.75,10.75,0,0,1,0,1.39c-.06.58.14.84.7,1.05a1.9,1.9,0,0,1,1.48,2.15A2.78,2.78,0,0,0,23.6,16.78Zm1,.11a6.26,6.26,0,0,0-.7.17c-.11,0-.26.18-.26.26,0,.8-.52,1.15-1.11,1.49a.72.72,0,0,0-.3.37,1.34,1.34,0,0,0,.58,1.49.66.66,0,0,0,.55,0,19.44,19.44,0,0,0,2.46-1.46,4.09,4.09,0,0,0,.82-1.34s-.08-.18-.15-.24A2.93,2.93,0,0,0,24.58,16.89ZM17.77,25a4.73,4.73,0,0,0,2.89-.88,1.56,1.56,0,0,0-.09-2.75,5.27,5.27,0,0,0-5.6.26,1.54,1.54,0,0,0,.09,2.63A4.55,4.55,0,0,0,17.77,25Zm7.56-17.7a1.43,1.43,0,0,0-1.15.9,1.48,1.48,0,0,0,.27,1.61,1.88,1.88,0,0,0,1.79.61c1.14-.2,1.39-.78.77-1.76a3.15,3.15,0,0,0-.67-.78A7.16,7.16,0,0,0,25.33,7.34Zm-6.48,4.18a1.1,1.1,0,0,0,.89-.88A3.68,3.68,0,0,0,18.3,6.89a1.07,1.07,0,0,0-1.71.66A3.66,3.66,0,0,0,18,11.33c.27.16.54.31.65-.29Zm0,1a1.48,1.48,0,0,0,1.56-1.25,5.33,5.33,0,0,0-1.48-4.9l-.25.32a1.24,1.24,0,0,0-1.57-1c-.76.15-.94.6-.69,1.63a1.41,1.41,0,0,1,2.47-.28A3.89,3.89,0,0,1,20,9.59a1.87,1.87,0,0,1-1.23,2.24Zm10.3,1.55L28,14c-.29,1.13-.5,2.2-.85,3.23a.85.85,0,0,0,.38,1.15c.29-.23.81-.42.89-.73C28.7,16.46,28.87,15.28,29.11,14.07ZM17.76,26.2a13.89,13.89,0,0,1-1.71-.1,6.19,6.19,0,0,1-1.92-.57,1.22,1.22,0,0,1-.31-2,3.2,3.2,0,0,0,.28-.75,2,2,0,0,0-1.46,1.5,1.61,1.61,0,0,0,.92,1.62A4.71,4.71,0,0,0,17.76,26.2Zm.78-13.72a.66.66,0,0,0-.43-.9,3.49,3.49,0,0,1-1.14-1,6.61,6.61,0,0,1-.62-1.18A3,3,0,0,0,18.54,12.48ZM16.49,27.82A4.62,4.62,0,0,0,20,26.71a1.42,1.42,0,0,0,.51-1.28A12.57,12.57,0,0,1,18.65,27,12.17,12.17,0,0,1,16.49,27.82Zm-2.56-4a.82.82,0,0,0-.15,1,2,2,0,0,0,1.68,1A2.83,2.83,0,0,1,13.93,23.83Zm4.7-10.66L18.49,13c-.69,0-1.45-.23-1.93.43.56,0,1.17,0,1.77,0C18.43,13.45,18.53,13.27,18.63,13.17ZM16.07,6.68a3.45,3.45,0,0,0,0,2.88Zm9.82,5.54-.11.21,1.74,1,.12-.21Zm1.34,6.22-.38-.51-.43,1Z" transform="translate(0 -0.86)"/><path d="M2.52,7.38a9.22,9.22,0,0,1,.1-1.29A20,20,0,0,1,3.35,3c.41-1.1,1.21-1.19,2.07-.35a9.59,9.59,0,0,1,1.89,3l.25.57A2.28,2.28,0,0,1,9.78,4.9c.24-.55.32-1.22.93-1.5l.13.09c-.18.31-.37.62-.53.94a.63.63,0,0,0,.27,1A1.38,1.38,0,0,1,11,7.71c-.47.46-.87.4-1-.22A7,7,0,0,1,9.7,5.85c0-.56-.29-.78-.85-.62a1.62,1.62,0,0,0-1,1.86c.21,1,.38,2,.49,3.07,0,.28-.22.59-.34.89a3.33,3.33,0,0,1-.59-.72,4.83,4.83,0,0,1-.11-3.45,1.38,1.38,0,0,0,0-.83,9.06,9.06,0,0,0-2-3.22c-.75-.75-1.47-.67-1.78.33a36.69,36.69,0,0,0-.78,3.75,3.88,3.88,0,0,0,0,.48Zm5-.45C7,8.36,7.23,10.31,8,10.8A6.79,6.79,0,0,0,7.5,6.93Zm2.65-1.4a2.25,2.25,0,0,0,.3,2.13C11.4,7,11.27,6.09,10.15,5.53Z" transform="translate(0 -0.86)"/><path d="M13,4.36a31.58,31.58,0,0,1,0,7.4A40.65,40.65,0,0,1,13,4.36Z" transform="translate(0 -0.86)"/><path d="M22.62,6.85A5.81,5.81,0,0,1,22.56,4,4.67,4.67,0,0,1,22.62,6.85Z" transform="translate(0 -0.86)"/><path d="M14.77,2.07V5.12h-.2c-.22-1,.14-2,0-3.06Z" transform="translate(0 -0.86)"/><path d="M13.08,12.6v1.55H12.9V12.6Z" transform="translate(0 -0.86)"/><path d="M16.27,1V2.59h-.1V1Z" transform="translate(0 -0.86)"/><path class="cls-1" d="M12.52,15.82a9.92,9.92,0,0,1,0,1.23,1.58,1.58,0,0,0,1,1.63,8.34,8.34,0,0,0,3.56.9A13,13,0,0,0,22,19.05,1.88,1.88,0,0,0,22.84,21l-.34.22a1.28,1.28,0,0,1-1.88,0,5,5,0,0,0-5.72.25c-.67.58-1.32,1.2-2,1.81-.81.77-.68,1.81-.48,2.92a7.22,7.22,0,0,1-.79-.35l-7-4.1c-.66-.39-.71-1-.1-1.34,2.54-1.5,5.09-3,7.64-4.47C12.28,15.91,12.36,15.89,12.52,15.82Zm.9,3.67c-.17,0-.34-.12-.38-.08-.38.35-.85.24-1.28.31a1.55,1.55,0,0,0-1.32,1l-.36,1,.68-.1-.21.4c.43.07.84.16,1.25.2.08,0,.17-.17.27-.28a4.91,4.91,0,0,1-.54-.31c-.52-.37-.5-.82,0-1.16a1.33,1.33,0,0,1,1.68.17c.28.25.48.28.75,0l-.33-.4.27-.29-.06-.14L13,20Zm-4.37,3L8.7,23a5.44,5.44,0,0,0,.62.45s.22-.18.33-.28Z" transform="translate(0 -0.86)"/><path class="cls-1" d="M14.59,14.32v2.29h.2V15.54c0-1.49,0-1.51,1.48-1.72.6-.09,1.22-.1,1.82-.14.14,0,.27,0,.5.05V17.2h.17V13.66c.81.14,1.52.25,2.23.4.1,0,.22.24.23.37,0,.57,0,1.15,0,1.72,0,.16,0,.32,0,.48h.16V14.25l.14-.1A10.22,10.22,0,0,1,23,15a.9.9,0,0,1-.05,1.57,6.25,6.25,0,0,1-1.77.84,11,11,0,0,1-7.06-.31,3.61,3.61,0,0,1-1-.65.86.86,0,0,1,0-1.4,11.61,11.61,0,0,1,1.33-.86Zm1.68-.1h-.1V17.1h.1Z" transform="translate(0 -0.86)"/><path class="cls-1" d="M23.6,16.78a2.78,2.78,0,0,1,0-.41,1.9,1.9,0,0,0-1.48-2.15c-.56-.21-.76-.47-.7-1.05a10.75,10.75,0,0,0,0-1.39h-.16v2.06l-2.41-.37c-.16-.6-.13-.63.85-.82l.07.6c.26-.64.56-1.31.81-2,.19-.53.7-.52,1.09-.7a3.29,3.29,0,0,1,.81-.11V13h.17V10.5a3.11,3.11,0,0,1,2.15,1.17,5.21,5.21,0,0,0,2.05,1.75c.84.51.86.51.64,1.48s-.44,1.74-.66,2.64a7.93,7.93,0,0,0-1.55-.73A7.92,7.92,0,0,0,23.6,16.78Z" transform="translate(0 -0.86)"/><path class="cls-1" d="M24.58,16.89a2.93,2.93,0,0,1,1.89.77c.07.06.17.2.15.24a4.09,4.09,0,0,1-.82,1.34,19.44,19.44,0,0,1-2.46,1.46.66.66,0,0,1-.55,0,1.34,1.34,0,0,1-.58-1.49.72.72,0,0,1,.3-.37c.59-.34,1.13-.69,1.11-1.49,0-.08.15-.22.26-.26A6.26,6.26,0,0,1,24.58,16.89Z" transform="translate(0 -0.86)"/><path class="cls-1" d="M17.77,25a4.55,4.55,0,0,1-2.71-.74A1.54,1.54,0,0,1,15,21.67a5.27,5.27,0,0,1,5.6-.26,1.56,1.56,0,0,1,.09,2.75A4.73,4.73,0,0,1,17.77,25Zm-.06-.31,0-.14a3.52,3.52,0,0,0,2.33-.76A1.29,1.29,0,0,0,20,21.68a3.94,3.94,0,0,0-4.31.15A1.25,1.25,0,0,0,15.79,24,11,11,0,0,0,17.71,24.73Z" transform="translate(0 -0.86)"/><path class="cls-1" d="M25.33,7.34a7.16,7.16,0,0,1,1,.58A3.15,3.15,0,0,1,27,8.7c.62,1,.37,1.56-.77,1.76a1.88,1.88,0,0,1-1.79-.61,1.48,1.48,0,0,1-.27-1.61A1.43,1.43,0,0,1,25.33,7.34Z" transform="translate(0 -0.86)"/><path class="cls-1" d="M18.85,11.52,18.68,11c-.11.6-.38.45-.65.29a3.66,3.66,0,0,1-1.44-3.78,1.07,1.07,0,0,1,1.71-.66,3.68,3.68,0,0,1,1.44,3.75A1.1,1.1,0,0,1,18.85,11.52Zm-.05-1a1.68,1.68,0,0,1,.26-.43c.61-.5.58-.81-.16-1.21.25-.51.17-.78-.25-1-.24-.09-.46-.21-.7-.32-.19.36-.19.36-.61,0-.45.53-.13,1.05,0,1.58s.22,1.13.88,1.38C18.31,10,18.59,10.38,18.8,10.55Z" transform="translate(0 -0.86)"/><path class="cls-1" d="M18.81,12.52v-.69A1.87,1.87,0,0,0,20,9.59a3.89,3.89,0,0,0-1.19-2.53,1.41,1.41,0,0,0-2.47.28c-.25-1-.07-1.48.69-1.63a1.24,1.24,0,0,1,1.57,1l.25-.32a5.33,5.33,0,0,1,1.48,4.9A1.48,1.48,0,0,1,18.81,12.52Z" transform="translate(0 -0.86)"/><path class="cls-1" d="M29.11,14.07c-.24,1.21-.41,2.39-.73,3.53-.08.31-.6.5-.89.73a.85.85,0,0,1-.38-1.15c.35-1,.56-2.1.85-3.23Z" transform="translate(0 -0.86)"/><path class="cls-1" d="M17.76,26.2a4.71,4.71,0,0,1-4.2-.28,1.61,1.61,0,0,1-.92-1.62,2,2,0,0,1,1.46-1.5,3.2,3.2,0,0,1-.28.75,1.22,1.22,0,0,0,.31,2,6.19,6.19,0,0,0,1.92.57A13.89,13.89,0,0,0,17.76,26.2Z" transform="translate(0 -0.86)"/><path class="cls-1" d="M18.54,12.48a3,3,0,0,1-2.19-3.11A6.61,6.61,0,0,0,17,10.55a3.49,3.49,0,0,0,1.14,1A.66.66,0,0,1,18.54,12.48Z" transform="translate(0 -0.86)"/><path class="cls-1" d="M16.49,27.82A12.17,12.17,0,0,0,18.65,27a12.57,12.57,0,0,0,1.82-1.6A1.42,1.42,0,0,1,20,26.71,4.62,4.62,0,0,1,16.49,27.82Z" transform="translate(0 -0.86)"/><path class="cls-1" d="M13.93,23.83a2.83,2.83,0,0,0,1.53,2,2,2,0,0,1-1.68-1A.82.82,0,0,1,13.93,23.83Z" transform="translate(0 -0.86)"/><path class="cls-1" d="M18.63,13.17c-.1.1-.2.28-.3.28-.6,0-1.21,0-1.77,0C17,12.81,17.8,13,18.49,13Z" transform="translate(0 -0.86)"/><path class="cls-1" d="M16.07,6.68V9.56A3.45,3.45,0,0,1,16.07,6.68Z" transform="translate(0 -0.86)"/><path class="cls-1" d="M25.89,12.22l1.75,1-.12.21-1.74-1Z" transform="translate(0 -0.86)"/><path class="cls-1" d="M27.23,18.44l-.81.47.43-1Z" transform="translate(0 -0.86)"/><path class="cls-1" d="M7.5,6.93A6.79,6.79,0,0,1,8,10.8C7.23,10.31,7,8.36,7.5,6.93Z" transform="translate(0 -0.86)"/><path class="cls-1" d="M10.15,5.53c1.12.56,1.25,1.48.3,2.13A2.25,2.25,0,0,1,10.15,5.53Z" transform="translate(0 -0.86)"/><path d="M13.42,19.49,13,20l.88-.16.06.14-.27.29.33.4c-.27.27-.47.24-.75,0a1.33,1.33,0,0,0-1.68-.17c-.53.34-.55.79,0,1.16a4.91,4.91,0,0,0,.54.31c-.1.11-.19.29-.27.28-.41,0-.82-.13-1.25-.2l.21-.4-.68.1.36-1a1.55,1.55,0,0,1,1.32-1c.43-.07.9,0,1.28-.31C13.08,19.37,13.25,19.45,13.42,19.49Z" transform="translate(0 -0.86)"/><path d="M9.05,22.52l.6.63c-.11.1-.28.3-.33.28A5.44,5.44,0,0,1,8.7,23Z" transform="translate(0 -0.86)"/><path d="M16.27,14.22V17.1h-.1V14.23Z" transform="translate(0 -0.86)"/><path d="M17.71,24.73A11,11,0,0,1,15.79,24a1.25,1.25,0,0,1-.11-2.19A3.94,3.94,0,0,1,20,21.68a1.29,1.29,0,0,1,.09,2.15,3.52,3.52,0,0,1-2.33.76ZM18,21.21l-.05.13a3.18,3.18,0,0,0-2.22.72,1,1,0,0,0,.06,1.73A3.66,3.66,0,0,0,20,23.65a1,1,0,0,0-.12-1.77A10.85,10.85,0,0,0,18,21.21Z" transform="translate(0 -0.86)"/><path d="M18.8,10.55c-.21-.17-.49-.56-.57.07-.66-.25-.74-.84-.88-1.38s-.46-1.05,0-1.58c.42.34.42.34.61,0,.24.11.46.23.7.32.42.17.5.44.25,1,.74.4.77.71.16,1.21A1.68,1.68,0,0,0,18.8,10.55ZM18,9.29c.18.25,0,.72.51.58.14,0,.36-.26.34-.34C18.68,9.12,18.36,9.2,18,9.29Zm-.11-1.06-.17.28c.15.12.29.29.46.32s.22-.21.34-.33Z" transform="translate(0 -0.86)"/><path class="cls-1" d="M18,21.21a10.85,10.85,0,0,1,1.81.67A1,1,0,0,1,20,23.65a3.66,3.66,0,0,1-4.14.14,1,1,0,0,1-.06-1.73A3.18,3.18,0,0,1,18,21.34ZM16.19,23.1c.4.67,1,.54,1.57.56s1.15.2,1.57-.42c-.58-.28-.16-.4.13-.52-.14-.15-.29-.24-.34-.38-.3-.77-.54-.83-1.23-.28-.4-.37-.65-.38-1,0s-.38.37-.61.59C17,22.88,16.5,23,16.19,23.1Z" transform="translate(0 -0.86)"/><path class="cls-1" d="M18,9.29c.41-.09.73-.17.85.24,0,.08-.2.31-.34.34C18,10,18.13,9.54,18,9.29Z" transform="translate(0 -0.86)"/><path class="cls-1" d="M17.84,8.23l.63.27c-.12.12-.25.35-.34.33s-.31-.2-.46-.32Z" transform="translate(0 -0.86)"/><path d="M16.19,23.1c.31-.12.83-.22.13-.5.23-.22.43-.39.61-.59s.56-.32,1,0c.69-.55.93-.49,1.23.28.05.14.2.23.34.38-.29.12-.71.24-.13.52-.42.62-1,.43-1.57.42S16.59,23.77,16.19,23.1Zm1.75,0c.31,0,.66.25.74-.23,0-.15-.11-.44-.2-.45C18,22.32,18,22.69,17.94,23.06Zm-.34,0a3.36,3.36,0,0,0-.09-.58s-.24-.06-.26,0a3.66,3.66,0,0,0-.31.6Z" transform="translate(0 -0.86)"/><path class="cls-1" d="M17.94,23.06c.1-.37.1-.74.54-.68.09,0,.22.3.2.45C18.6,23.31,18.25,23,17.94,23.06Z" transform="translate(0 -0.86)"/><path class="cls-1" d="M17.6,23h-.66a3.66,3.66,0,0,1,.31-.6s.25,0,.26,0A3.36,3.36,0,0,1,17.6,23Z" transform="translate(0 -0.86)"/></svg>